<svg xmlns="http://www.w3.org/2000/svg" width="801.115" height="425.727" viewBox="0 0 801.115 425.727">
  <g id="advantages-row" transform="translate(-149.028 -3104)">
    <g id="Group_57196" data-name="Group 57196" transform="translate(336.355 3383.083)">
      <path id="Path_2812" data-name="Path 2812" d="M913.27,1309.9c-1.242,0-2.253,1.43-2.258,3.2s1,3.208,2.242,3.212,2.253-1.43,2.258-3.2S914.512,1309.906,913.27,1309.9Zm0,.906c.667,0,1.207.335,1.206.745s-.542.741-1.209.74-1.207-.335-1.206-.745S912.6,1310.807,913.267,1310.809Zm-.01,4.3c-.941,0-1.7-.517-1.7-1.149s.765-1.143,1.706-1.141,1.7.517,1.7,1.149S914.2,1315.114,913.257,1315.112Z" transform="translate(-907.382 -1309.903)" fill="#466eb6"/>
      <path id="Path_2813" data-name="Path 2813" d="M896.22,1340.27a7.773,7.773,0,0,0-.723,3.249l-.057,23.473a2.58,2.58,0,0,0,2.586,2.573l13.422.033a2.58,2.58,0,0,0,2.6-2.56l.058-23.473a7.773,7.773,0,0,0-.707-3.252Z" transform="translate(-895.44 -1333.191)" fill="#7f1ca0"/>
      <path id="Path_2814" data-name="Path 2814" d="M896.22,1340.27a7.773,7.773,0,0,0-.723,3.249l-.057,23.473a2.58,2.58,0,0,0,2.586,2.573l13.422.033a2.58,2.58,0,0,0,2.6-2.56l.058-23.473a7.773,7.773,0,0,0-.707-3.252Z" transform="translate(-895.44 -1333.191)" fill="#7f1ca0"/>
      <path id="Path_2815" data-name="Path 2815" d="M914.111,1343.567l-.058,23.474a2.582,2.582,0,0,1-2.6,2.56l-13.422-.033a2.58,2.58,0,0,1-2.587-2.573l.058-23.474a7.77,7.77,0,0,1,.722-3.247l17.177.042A7.778,7.778,0,0,1,914.111,1343.567Z" transform="translate(-895.444 -1333.194)" fill="#f47458"/>
      <path id="Path_2816" data-name="Path 2816" d="M899,1367l.058-23.473a7.771,7.771,0,0,1,.723-3.249l-3.559-.009a7.773,7.773,0,0,0-.723,3.249l-.057,23.473a2.58,2.58,0,0,0,2.586,2.573l3.559.009A2.58,2.58,0,0,1,899,1367Z" transform="translate(-895.44 -1333.191)" fill="#f48c7f"/>
      <path id="Path_2817" data-name="Path 2817" d="M948.722,1343.662l-.058,23.474a2.582,2.582,0,0,1-2.6,2.56l-5.488-.013a2.6,2.6,0,0,0,2.627-2.561l.058-23.474a7.732,7.732,0,0,0-.715-3.251l5.466.013A7.778,7.778,0,0,1,948.722,1343.662Z" transform="translate(-930.055 -1333.289)" fill="#b75742"/>
      <path id="Path_2818" data-name="Path 2818" d="M915.96,1335.853l-17.18-.042h0a1.366,1.366,0,0,1,1.376-1.356l14.435.035a1.366,1.366,0,0,1,1.37,1.362Z" transform="translate(-898.001 -1328.731)" fill="#13375b"/>
      <rect id="Rectangle_1092" data-name="Rectangle 1092" width="2.917" height="18.608" transform="translate(0.006 32.084) rotate(-89.859)" fill="#355389"/>
    </g>
    <g id="Group_57197" data-name="Group 57197" transform="translate(251.519 3382.238)">
      <path id="Path_2819" data-name="Path 2819" d="M643.854,1306.645h2.052a2.146,2.146,0,0,0-1.213-.367H593.28a4.619,4.619,0,0,0-4.871,4.318v2.743a4.619,4.619,0,0,0,4.871,4.318l50.839-.015Z" transform="translate(-575.146 -1306.278)" fill="#86b1f2"/>
      <path id="Path_2820" data-name="Path 2820" d="M685.72,1306.322a4.417,4.417,0,0,0-4.658,4.129v3.1a4.417,4.417,0,0,0,4.658,4.129h32.007v-.693h-.132l-8.137-.683-1.645-5.719s3.174-3.16,3.381-3.242,6.4-.329,6.4-.329h.132v-.689Z" transform="translate(-646.2 -1306.312)" fill="#466eb6"/>
      <path id="Path_2821" data-name="Path 2821" d="M719.056,1314.261a6.607,6.607,0,0,1,1.949-4.965H689.78a4.057,4.057,0,0,0-4.278,3.792v2.385a4.058,4.058,0,0,0,4.278,3.793h31.225S719.056,1318.471,719.056,1314.261Z" transform="translate(-649.605 -1308.592)" fill="#fae0b2"/>
      <path id="Path_2822" data-name="Path 2822" d="M685.5,1313.088v2.385a3.392,3.392,0,0,0,.125.91,8.946,8.946,0,0,1,6.914-5.191c8.971-1.652,28.465-1.9,28.465-1.9H689.78A4.057,4.057,0,0,0,685.5,1313.088Z" transform="translate(-649.605 -1308.592)" fill="#daeef7" style="mix-blend-mode: multiply;isolation: isolate"/>
      <path id="Path_2823" data-name="Path 2823" d="M616.181,1403.894H618.5a2.267,2.267,0,0,0-1.373-.459H558.94a5.459,5.459,0,0,0-5.513,5.4v3.432a5.459,5.459,0,0,0,5.513,5.4l57.541-.019Z" transform="translate(-548.319 -1380.786)" fill="#50bfa5"/>
      <path id="Path_2824" data-name="Path 2824" d="M663.565,1403.489a5.221,5.221,0,0,0-5.272,5.168v3.879a5.221,5.221,0,0,0,5.272,5.168H699.79v-.868h-.15l-9.209-.855-1.861-7.159s3.593-3.956,3.827-4.058,7.244-.412,7.244-.412h.15v-.863Z" transform="translate(-628.739 -1380.828)" fill="#3c8f7c"/>
      <path id="Path_2825" data-name="Path 2825" d="M701.294,1413.427a8.66,8.66,0,0,1,2.206-6.215H668.16a4.8,4.8,0,0,0-4.842,4.747v2.986a4.8,4.8,0,0,0,4.842,4.747H703.5S701.294,1418.7,701.294,1413.427Z" transform="translate(-632.593 -1383.683)" fill="#fae0b2"/>
      <path id="Path_2826" data-name="Path 2826" d="M663.318,1411.959v2.986a4.669,4.669,0,0,0,.141,1.138,10.354,10.354,0,0,1,7.825-6.5c10.153-2.067,32.216-2.374,32.216-2.374H668.16A4.8,4.8,0,0,0,663.318,1411.959Z" transform="translate(-632.593 -1383.683)" fill="#daeef7" style="mix-blend-mode: multiply;isolation: isolate"/>
      <path id="Path_2827" data-name="Path 2827" d="M537.556,1355.325h-2.324a2.675,2.675,0,0,1,1.373-.365h58.214c3.046,0,5.515,1.92,5.515,4.288v2.724c0,2.368-2.469,4.288-5.515,4.288l-57.563-.015Z" transform="translate(-534.365 -1343.612)" fill="#f47458"/>
      <path id="Path_2828" data-name="Path 2828" d="M567.754,1355c2.913,0,5.274,1.836,5.274,4.1v3.078c0,2.265-2.361,4.1-5.274,4.1h-36.24v-.688h.15l9.213-.678,1.862-5.68s-3.594-3.139-3.828-3.22-7.247-.327-7.247-.327h-.15V1355Z" transform="translate(-531.514 -1343.645)" fill="#b75742"/>
      <path id="Path_2829" data-name="Path 2829" d="M534.336,1362.888a6.259,6.259,0,0,0-2.207-4.931h35.354c2.675,0,4.844,1.687,4.844,3.767v2.37c0,2.08-2.169,3.767-4.844,3.767H532.129S534.336,1367.07,534.336,1362.888Z" transform="translate(-531.986 -1345.91)" fill="#fae0b2"/>
      <path id="Path_2830" data-name="Path 2830" d="M572.327,1361.724v2.37a2.976,2.976,0,0,1-.141.9c-1.192-2.269-3.478-4.454-7.828-5.156-10.157-1.64-32.229-1.883-32.229-1.883h35.354C570.159,1357.957,572.327,1359.644,572.327,1361.724Z" transform="translate(-531.986 -1345.91)" fill="#daeef7" style="mix-blend-mode: multiply;isolation: isolate"/>
    </g>
    <rect id="Rectangle_1093" data-name="Rectangle 1093" width="5.555" height="127.288" transform="translate(462.929 3398.978) rotate(10.732)" fill="#184655"/>
    <path id="Path_2831" data-name="Path 2831" d="M2060.052,1504.725h6.564l-24.464-126.688-5.458,1.035Z" transform="translate(-1434.299 2020.929)" fill="#184655"/>
    <path id="Path_2832" data-name="Path 2832" d="M1544.481,1504.725h6.565l-24.464-126.688-5.458,1.035Z" transform="translate(-1038.914 2020.929)" fill="#184655"/>
    <path id="Path_2833" data-name="Path 2833" d="M1862.773,1506.6l-5.33.064,23.454-126.183,5.458,1.035Z" transform="translate(-1296.833 2019.058)" fill="#184655"/>
    <path id="Path_2834" data-name="Path 2834" d="M1359.436,644.345c21.612,2.315,49.58,4.756,77.657,52.4,30.687,52.076,14.533,129.864-9.687,151.48s-103.326,48.307-169.824,8.349c0,0-40.152-24.215-19.545-64.4,31.711-61.844,27.23-74.741,41.409-98.977S1313.561,639.432,1359.436,644.345Z" transform="translate(-817.307 2584.003)" fill="#fae0b2"/>
    <path id="Path_2835" data-name="Path 2835" d="M1480.012,710.659c-19.164-32.521-38.276-43.98-55.352-48.716a143.017,143.017,0,0,1,20,27c30.687,52.076,14.533,129.864-9.687,151.48-21.479,19.17-86.121,42.322-146.857,19.452a61.708,61.708,0,0,0,12.382,10.612c66.5,39.957,145.6,13.267,169.824-8.349S1510.7,762.735,1480.012,710.659Z" transform="translate(-860.225 2570.093)" fill="#f7cc7f"/>
    <path id="Path_2836" data-name="Path 2836" d="M491.779,769.047c-.613,4.831,4.418,8.665,8.892,8.362a11.01,11.01,0,0,0,9.865-9.251c.783-5.261-2.378-9.469-7.269-9.854a6.1,6.1,0,0,0-6.431,8.138c.986,3.066,3.784,4.209,5.194,3.363a1.4,1.4,0,0,0-.3-2.615,1.375,1.375,0,0,0-1.366.589c-1.165-.462-2.273-2.582-1.521-4.871.961-2.924,4.657-3.091,6.953-1.727,2.922,1.735,3.381,5.473,2.309,8.451a8.992,8.992,0,0,1-7.54,5.828,7.007,7.007,0,0,1-7.423-6.407A.684.684,0,0,0,491.779,769.047Z" transform="translate(-249.484 2496.212)" fill="#f48c7f"/>
    <g id="Group_57199" data-name="Group 57199" transform="translate(534.652 3104)">
      <path id="Path_2837" data-name="Path 2837" d="M1786.735,112.7c-22.368-.133-40.567,10.9-40.649,24.639-.041,6.87,4.456,13.117,11.758,17.663l-9.2,20.2,19.2-15.635a61.68,61.68,0,0,0,18.6,2.887c22.368.133,40.567-10.9,40.648-24.639S1809.1,112.836,1786.735,112.7Z" transform="translate(-1746.087 -112.702)" fill="#fae0b2"/>
      <g id="Group_57198" data-name="Group 57198" transform="translate(24.683 9.53)">
        <path id="Path_2838" data-name="Path 2838" d="M1852.442,171.3a14.114,14.114,0,1,0,10.051-17.249A14.112,14.112,0,0,0,1852.442,171.3Z" transform="translate(-1851.973 -153.585)" fill="#f7cc7f"/>
        <path id="Path_2839" data-name="Path 2839" d="M1898.269,215.178a7.546,7.546,0,1,1-14.594,3.848Z" transform="translate(-1876.285 -200.82)" fill="#efefef"/>
      </g>
    </g>
    <g id="Group_57201" data-name="Group 57201" transform="translate(341.533 3252.228)">
      <path id="Path_2840" data-name="Path 2840" d="M920.534,795.424l61.756-.464a2.554,2.554,0,0,0,2.534-2.573l-.31-41.288a2.554,2.554,0,0,0-2.573-2.534l-61.756.464a2.554,2.554,0,0,0-2.534,2.573l.31,41.288A2.554,2.554,0,0,0,920.534,795.424Z" transform="translate(-917.652 -748.566)" fill="#f47458"/>
      <path id="Path_2841" data-name="Path 2841" d="M1181.032,847.086l19.94,20.32-24.6-4.592Z" transform="translate(-1116.062 -824.12)" fill="#f47458"/>
      <g id="Group_57200" data-name="Group 57200" transform="translate(16.249 5.209)">
        <path id="Path_2842" data-name="Path 2842" d="M1018.087,785.805l-6-.108s-7.562-5.646-7.793-7.642,1.008-6.219-.165-6.749A3.931,3.931,0,0,0,998.9,773c-1.139,1.918-.191,8.92-.9,9.388-.441.293-3.892.328-6.413.314a4.452,4.452,0,0,0-3.959,2.367l0,0a2.372,2.372,0,0,0,.574,2.931l1.338,1.119-1.053,1.4a2.372,2.372,0,0,0,.457,3.312l1.057.806-.724.824a2.372,2.372,0,0,0,.422,3.507l.939.658-.141.26a2.372,2.372,0,0,0,.775,3.109l.944.624,15.982.284a10.989,10.989,0,0,0,4.37-.822l5.637-.829a1.237,1.237,0,0,0,1.057-1.221l.036-13.99A1.236,1.236,0,0,0,1018.087,785.805Z" transform="translate(-987.355 -770.911)" fill="#fff"/>
      </g>
    </g>
    <path id="Path_2843" data-name="Path 2843" d="M1462.239,985.671l-5.555,16.664,16.929-6.658Z" transform="translate(-989.496 2321.83)" fill="#f79c8d"/>
    <path id="Path_2844" data-name="Path 2844" d="M1479.847,772.937c-1.129.047-4.221,1.078-8.744,9.6-5.775,10.877-14.216,43.736-14.216,43.736l25.2,9.351,3.237-6.859,5.331-52.8S1480.16,772.924,1479.847,772.937Z" transform="translate(-989.652 2484.973)" fill="#042a44"/>
    <path id="Path_2845" data-name="Path 2845" d="M1583.426,752.619c-7.2.01-25.031,2.1-33.305,4.739,0,0-6.078,52.064,5.472,91.627,2.586,8.856-2.138,36.711-2.138,36.711l74.656-.982s-8.844-67.342-5.513-78.22,3.411-48.786,3.411-48.786-.511-.079-16.773-2.881A169.582,169.582,0,0,0,1583.426,752.619Z" transform="translate(-1059.926 2500.554)" fill="#07345a"/>
    <path id="Path_2846" data-name="Path 2846" d="M1715.854,1738.023s-1.651,19-4.688,24.259.16,14.2.319,15.432,6.393,2.981,16.3,1.929,9.75-3.332,8.95-7.015-6.074-8.417-6.393-11.925,3.037-16.133,3.037-16.133Z" transform="translate(-1183.654 1744.861)" fill="#f7a491"/>
    <path id="Path_2847" data-name="Path 2847" d="M1383.2,1252.386s-51.535-2.852-63.043,4.094,2.081,21.209,2.081,21.209,41.955,18.179,112.195,22.219c16.633.957,18.067-43.222,14.956-46.878S1383.2,1252.386,1383.2,1252.386Z" transform="translate(-881.247 2118.183)" fill="#327f6b"/>
    <path id="Path_2848" data-name="Path 2848" d="M1725.492,1864.683c10.2-1.084,8.942-6.079,8.119-9.872-.515-2.375-3.442-5.173-5.187-7.821-.912.724-2.4,2-6.827,3.307-4.6,1.355-10.909-1.326-14.929-3.005a48.952,48.952,0,0,0-1.364,13.118C1705.469,1861.673,1715.289,1865.766,1725.492,1864.683Z" transform="translate(-1180.123 1661.295)" fill="#355389"/>
    <path id="Path_2849" data-name="Path 2849" d="M1727.59,1290.808c-2.059,15.528-12.253,92.827-12.253,92.827l23.654,2.923s29.088-100.893,27.6-116.326-12.38-16.73-12.38-16.73S1733.04,1249.7,1727.59,1290.808Z" transform="translate(-1187.853 2116.505)" fill="#3c8f7c"/>
    <path id="Path_2850" data-name="Path 2850" d="M1603.854,460.305s7.859-8.286,14.181,1.794a6.284,6.284,0,0,1,8.286,2.136s8.8-2.648,10.934,10.507c0,0,4.528-.854,5.126,4.528a13.317,13.317,0,0,1-2.136,8.969s2.543,1.907,1.388,6.855a6.122,6.122,0,0,1-4.463,4.848s-.94,7.09-4.015,9.226-7.261,1.111-7.261,1.111-1.111,3.844-4.7,3.5-8.03-3.758-12.045-2.221-14.437-.086-14.437-.086-11.7-5.211-8.2-17.17c0,0-6.151-5.552-.769-12.216,0,0-3.93-10.422,3.844-16.572S1603.854,460.305,1603.854,460.305Z" transform="translate(-1086.777 2727.182)" fill="#07345a"/>
    <path id="Path_2851" data-name="Path 2851" d="M1667.827,657.484l-1.423,10.555s-3.187,15.206.913,18.137,17.436-18.571,17.436-18.571l-1.409-26.744Z" transform="translate(-1149.423 2586.26)" fill="#f7a491"/>
    <path id="Path_2852" data-name="Path 2852" d="M1688.395,649.528c-3.387,9.122-11.453,14.729-17.179,16.9l1.206-8.948,15.518-16.623Z" transform="translate(-1154.017 2586.26)" fill="#f47458"/>
    <path id="Path_2853" data-name="Path 2853" d="M1637.8,517.821a14.105,14.105,0,0,0-18.459,11.24A106.616,106.616,0,0,0,1618.2,542.6c-.224,12.327,6.158,24.325,11.755,24.325s21.069-7.98,21.629-25.481C1651.928,530.642,1646.534,520.827,1637.8,517.821Z" transform="translate(-1113.355 2681.202)" fill="#f7a491"/>
    <path id="Path_2854" data-name="Path 2854" d="M1743.733,611.414c0,2.72,1.8,4.924,4.026,4.924s4.026-2.2,4.026-4.924-1.8-4.924-4.026-4.924S1743.733,608.695,1743.733,611.414Z" transform="translate(-1209.63 2612.618)" fill="#f7a491"/>
    <path id="Path_2855" data-name="Path 2855" d="M1578.219,481.629c-5.782,4.581-7.808,11.541-4.526,15.546s10.631,3.538,16.413-1.042,7.809-11.541,4.526-15.546S1584,477.048,1578.219,481.629Z" transform="translate(-1078.024 2711.261)" fill="#07345a"/>
    <path id="Path_2856" data-name="Path 2856" d="M1599.1,799.015c-6.98-2.609-10.4,60.071-11.336,85.87-12.361,1.185-33.907.009-39.271-.393-2.523-.189-8.341-2.312-10.85-2.64a25.2,25.2,0,0,0-6.167-.291c-.464.08-13.348,5.332-14.451,6.483-1.367,1.428-5.062,5.03-4.438,6.588s7.107-4.341,7.107-4.341l3.168-1.772c-3.944,3.84-11.468,8.9-10.384,10.74,1.057,1.8,7.844-3.337,12.68-6.835-4.148,3.734-9.3,10.418-8.115,11.459,1.067.936,6.93-6.8,13.2-9.029,2.322-.825,4.636,1.461,6.463,1.737,1.342.2,3.415.635,4.732.263l6.784-1.917c2.311.208,2.369,1.571,4.7,2.066,2.709.574,7.154,1.179,10.6,2.02,19.868,4.838,26.495,7.084,32.578,7.081C1614.526,906.094,1615.594,805.182,1599.1,799.015Z" transform="translate(-1032.201 2465.034)" fill="#f7a491"/>
    <path id="Path_2857" data-name="Path 2857" d="M1848.09,838.593c1.308-26.426,1.116-59-13.748-64.556-5.865-2.193-16.2,10.992-14.345,65.093C1827.933,839.783,1839.583,840.309,1848.09,838.593Z" transform="translate(-1267.947 2484.302)" fill="#07345a"/>
    <path id="Path_2858" data-name="Path 2858" d="M1584.494,1003h1.515l22.778,55.786-1.569-.238Z" transform="translate(-1087.511 2308.539)" fill="#f79c8d"/>
    <path id="Path_2859" data-name="Path 2859" d="M1358.028,1807.733s2.064,6.6-1.632,10.956-19.053,8.64-21.069,11a6.608,6.608,0,0,0-1.863,4.374l43.1-1.182-.469-12.973-1.985-9.323Z" transform="translate(-894.998 1691.401)" fill="#f7a491"/>
    <path id="Path_2860" data-name="Path 2860" d="M1331.835,1860.81s11.075,4.465,16.425,1.822,5.188-3.376,6.736-2.39,2.1,13.147,2.1,13.147l-48.467,1.42c-3.373-.077-5.078-2.553-2.338-4.672a39.5,39.5,0,0,1,5.284-3.131C1315.369,1864.838,1331.835,1860.81,1331.835,1860.81Z" transform="translate(-873.118 1651.455)" fill="#355389"/>
    <path id="Path_2861" data-name="Path 2861" d="M1321.022,1268.036c-3.331-6.987-10.908-16.083-24.239-10.6-12.715,5.225-16.127,18.068-12.116,31.219s30.421,90.458,31.342,101.087l21.087.139s-3.832-61.213-4.772-76.009C1331.418,1299.631,1326.787,1280.128,1321.022,1268.036Z" transform="translate(-856.358 2114.707)" fill="#3c8f7c"/>
    <path id="Path_2862" data-name="Path 2862" d="M1283.87,1003h70.487a4.6,4.6,0,0,1,4.252,2.852l21.7,52.934h38.86a1.967,1.967,0,0,1,1.967,1.966h0a1.967,1.967,0,0,1-1.967,1.966h-110.6a7.721,7.721,0,0,1-7.043-4.559l-21.854-48.681A4.6,4.6,0,0,1,1283.87,1003Z" transform="translate(-853.438 2308.539)" fill="#f47458"/>
    <path id="Path_2863" data-name="Path 2863" d="M1461.482,1118.368a3.879,3.879,0,1,0,2.908-5.059A4.147,4.147,0,0,0,1461.482,1118.368Z" transform="translate(-993.1 2223.997)" fill="#fff"/>
    <ellipse id="Ellipse_665" data-name="Ellipse 665" cx="34.804" cy="34.877" rx="34.804" ry="34.877" transform="translate(631.746 3166.91)" fill="#9bc1f9" opacity="0.3"/>
    <g id="Group_57209" data-name="Group 57209" transform="translate(629.12 3164.542)">
      <g id="Group_57208" data-name="Group 57208">
        <g id="Group_57202" data-name="Group 57202" transform="translate(0 36.558)">
          <rect id="Rectangle_1094" data-name="Rectangle 1094" width="12.831" height="0.988" fill="#184655"/>
        </g>
        <g id="Group_57203" data-name="Group 57203" transform="translate(62.109 36.558)">
          <rect id="Rectangle_1095" data-name="Rectangle 1095" width="12.831" height="0.988" fill="#184655"/>
        </g>
        <g id="Group_57204" data-name="Group 57204" transform="translate(36.883)">
          <rect id="Rectangle_1096" data-name="Rectangle 1096" width="0.986" height="12.857" fill="#184655"/>
        </g>
        <g id="Group_57205" data-name="Group 57205" transform="translate(36.883 61.99)">
          <rect id="Rectangle_1097" data-name="Rectangle 1097" width="0.986" height="12.857" fill="#184655"/>
        </g>
        <path id="Path_2864" data-name="Path 2864" d="M2309.467,528.682a1.062,1.062,0,1,1-1.062-1.064A1.063,1.063,0,0,1,2309.467,528.682Z" transform="translate(-2270.975 -491.437)" fill="#184655"/>
        <g id="Group_57206" data-name="Group 57206" transform="translate(17.871 17.645)">
          <path id="Path_2865" data-name="Path 2865" d="M2247.553,468.181a.472.472,0,0,1-.335-.139l-19.084-19.124a.475.475,0,0,1,.671-.673l19.084,19.124a.476.476,0,0,1-.336.812Z" transform="translate(-2227.995 -448.105)" fill="#184655"/>
        </g>
        <g id="Group_57207" data-name="Group 57207" transform="translate(37.208 37.245)">
          <path id="Path_2866" data-name="Path 2866" d="M2317.3,551.511a.344.344,0,0,1-.173-.2l-6.168-18.672a.345.345,0,1,1,.655-.217l6.169,18.672a.345.345,0,0,1-.483.418Z" transform="translate(-2310.944 -532.184)" fill="#184655"/>
        </g>
      </g>
    </g>
    <path id="Path_2867" data-name="Path 2867" d="M2549.331,807.427l3.107-5.046-2.495-1.012a1.067,1.067,0,0,1-.587-1.389h0a1.066,1.066,0,0,1,1.389-.588l2.877,1.167,2.777-4.531-2.665-1.08a1.067,1.067,0,0,1-.588-1.389h0a1.067,1.067,0,0,1,1.389-.588l3.047,1.235,3.225-5.189a1.067,1.067,0,0,1,1.307-.425l.466.189a1.066,1.066,0,0,1,.508,1.546l-3,4.9,4.418,1.792,3.226-5.189a1.067,1.067,0,0,1,1.307-.425l.508.206a1.067,1.067,0,0,1,.509,1.546l-3,4.9,2.495,1.012a1.066,1.066,0,0,1,.588,1.389h0a1.066,1.066,0,0,1-1.389.588l-2.877-1.167-2.735,4.549,2.664,1.081a1.067,1.067,0,0,1,.588,1.389h0a1.067,1.067,0,0,1-1.389.588l-3.047-1.236-3.295,5.351a1.067,1.067,0,0,1-1.309.429l-.544-.221a1.067,1.067,0,0,1-.507-1.548l3.106-5.045-4.417-1.792-3.294,5.351a1.067,1.067,0,0,1-1.309.429l-.544-.221A1.067,1.067,0,0,1,2549.331,807.427Zm11.257-4.043,2.777-4.531-4.417-1.792-2.777,4.531Z" transform="translate(-1827.311 2473.027)" fill="#07345a"/>
    <path id="Path_2868" data-name="Path 2868" d="M1377.189,211.7l3.176-7.169-4.1-6.681a1.078,1.078,0,0,1,1.029-1.636l7.8.805,5.085-5.968a1.078,1.078,0,0,1,1.874.473l1.644,7.667,7.248,2.992a1.077,1.077,0,0,1,.129,1.928l-6.783,3.933-.606,7.817a1.078,1.078,0,0,1-1.794.719l-5.837-5.236-7.622,1.84A1.078,1.078,0,0,1,1377.189,211.7Z" transform="translate(-927.696 2931.501)" fill="#f48c7f"/>
    <path id="Path_2869" data-name="Path 2869" d="M2365.106,228.96l2.382-5.377-3.079-5.011a.808.808,0,0,1,.772-1.227l5.85.6,3.815-4.477a.808.808,0,0,1,1.405.355l1.233,5.751,5.437,2.244a.808.808,0,0,1,.1,1.446l-5.088,2.95-.454,5.864a.808.808,0,0,1-1.346.539l-4.378-3.928-5.717,1.38A.808.808,0,0,1,2365.106,228.96Z" transform="translate(-1685.525 2914.237)" fill="#f7cc7f"/>
    <path id="Path_2870" data-name="Path 2870" d="M2251.314,892.643l-.377-4.454-3.883-2.214a.614.614,0,0,1,.066-1.1l4.12-1.736.906-4.378a.614.614,0,0,1,1.066-.277l2.923,3.382,4.443-.491a.614.614,0,0,1,.593.929l-2.313,3.826,1.841,4.074a.614.614,0,0,1-.7.851l-4.353-1.018-3.306,3.009A.615.615,0,0,1,2251.314,892.643Z" transform="translate(-1595.382 2404.193)" fill="#f48c7f"/>
    <path id="Path_2871" data-name="Path 2871" d="M735.69,620.943,737.437,617l-2.258-3.675a.593.593,0,0,1,.566-.9l4.29.443,2.8-3.283a.593.593,0,0,1,1.031.26l.9,4.217,3.987,1.646a.593.593,0,0,1,.071,1.061l-3.731,2.163-.333,4.3a.593.593,0,0,1-.987.4l-3.21-2.88-4.193,1.012A.593.593,0,0,1,735.69,620.943Z" transform="translate(-436.115 2610.405)" fill="#f7cc7f"/>
    <path id="Path_2872" data-name="Path 2872" d="M1315.783,590.333l1.747-3.943-2.258-3.675a.593.593,0,0,1,.566-.9l4.29.443,2.8-3.283a.592.592,0,0,1,1.031.26l.9,4.217,3.987,1.646a.593.593,0,0,1,.071,1.061l-3.731,2.163-.333,4.3a.593.593,0,0,1-.987.4l-3.21-2.88-4.193,1.012A.593.593,0,0,1,1315.783,590.333Z" transform="translate(-880.981 2633.88)" fill="#50bfa5"/>
    <path id="Path_2873" data-name="Path 2873" d="M1028.065,335.055l6.923-1,2.846,10.962,10.3-.22,3.471,7.855,3.976-1.757-4.643-10.506-9.765.208-2.961-11.4L1027.8,330.7Z" transform="translate(-660.59 2825.277)" fill="#50bfa5"/>
    <path id="Path_2874" data-name="Path 2874" d="M956.671,1107.557l5.239-4.636,8.391,7.606,8.5-5.834,7.21,4.666,2.362-3.65-9.643-6.24L970.675,1105l-8.729-7.912-7.884,6.976Z" transform="translate(-604.042 2236.388)" fill="#07345a"/>
    <path id="Path_2875" data-name="Path 2875" d="M611.514,1078.549l4.4-7.141-3.531-1.432a1.51,1.51,0,0,1-.832-1.966h0a1.509,1.509,0,0,1,1.966-.832l4.072,1.651,3.931-6.413-3.771-1.529a1.51,1.51,0,0,1-.832-1.966h0a1.509,1.509,0,0,1,1.966-.832l4.312,1.749,4.565-7.344a1.51,1.51,0,0,1,1.849-.6l.658.267a1.51,1.51,0,0,1,.72,2.188l-4.246,6.93,6.252,2.536,4.565-7.344a1.51,1.51,0,0,1,1.849-.6l.719.292a1.51,1.51,0,0,1,.72,2.188l-4.246,6.93,3.531,1.432a1.509,1.509,0,0,1,.832,1.966h0a1.51,1.51,0,0,1-1.966.832l-4.072-1.651-3.871,6.438,3.771,1.529a1.51,1.51,0,0,1,.832,1.966h0a1.51,1.51,0,0,1-1.966.831l-4.312-1.749-4.663,7.573a1.509,1.509,0,0,1-1.853.608l-.77-.312a1.51,1.51,0,0,1-.718-2.19l4.4-7.141-6.252-2.536-4.663,7.574a1.51,1.51,0,0,1-1.853.607l-.77-.312A1.51,1.51,0,0,1,611.514,1078.549Zm15.932-5.721,3.931-6.413-6.252-2.536-3.931,6.413Z" transform="translate(-341.174 2271.13)" fill="#50bfa5"/>
    <g id="Group_57210" data-name="Group 57210" transform="translate(614.508 3311.035)">
      <path id="Path_2876" data-name="Path 2876" d="M2143.881,1219.045c-.447-3.949-.978-7.988-2.811-11.513-2.229-4.285-6.145-7.378-9.565-10.783a59.827,59.827,0,0,1-14.264-22.736c-2.283-6.6-3.421-13.624-6.567-19.854-1.921-3.8-4.541-7.2-6.723-10.864-5.158-8.65-7.965-18.873-14.958-26.113a31.389,31.389,0,0,0,7.089,24.83c1.723,2.009,3.72,3.82,5.032,6.119,2.382,4.173,2.165,9.266,2.444,14.065a61.764,61.764,0,0,0,7.386,25.85c4.589,8.426,11.212,15.929,13.665,25.208,1.838,6.953,1.292,14.753,5.211,20.779a5.313,5.313,0,0,1,1.015,2.081,4.562,4.562,0,0,1-.077,1.307q-.132.84-.263,1.679c-.892,5.691-1.813,12.932,3.077,17.191,3.389,2.952,7.751,3.018,10.185-.9,2.451-3.948,2.234-9.726,2.052-14.169C2145.506,1233.82,2144.714,1226.4,2143.881,1219.045Z" transform="translate(-2088.648 -1090.059)" fill="#3c8f7c"/>
      <path id="Path_2877" data-name="Path 2877" d="M2273.619,1125.243c-1.9-6.588-4.855-12.862-6.335-19.558-1.435-6.495-1.447-13.209-1.451-19.861q-.008-10.934-.016-21.868a82.375,82.375,0,0,0-.758-13.576c-1.614-9.629-6.618-18.533-7.466-28.26-.367-4.206.059-8.458-.4-12.654a19.913,19.913,0,0,0-1.989-6.972,3.1,3.1,0,0,0-5.572.156c-2.431,5.267-3.973,10.96-2.99,16.6.589,3.385,2.055,6.542,3.149,9.8,4.875,14.5,2.287,30.553,6.059,45.38,1.138,4.476,2.86,8.865,3.06,13.479.479,11.044-7.769,21.132-7.012,32.16.621,9.042,7.121,16.525,9.85,25.166,1.528,4.838,1.854,10,3.491,14.8,1.271,3.73,4.228,8.261,8.821,7.128,4.36-1.075,3.043-4.634,2.848-8.033C2276.244,1147.635,2276.864,1136.478,2273.619,1125.243Z" transform="translate(-2209.578 -1000.835)" fill="#327f6b"/>
      <path id="Path_2878" data-name="Path 2878" d="M2345.337,1152.9c-.192-3.423-.77-6.865-.291-10.26.4-2.867,1.546-5.569,2.361-8.347,1.527-5.205,1.906-10.669,2.275-16.082q1.009-14.76,2.017-29.52c1.045-15.3,2.1-30.634,4.955-45.7.794-4.182,1.686-8.713-.194-12.53-.4-.8-1.175-1.658-2.03-1.391-.609.191-.907.861-1.128,1.461-6.251,16.989-8.614,35.28-15.592,51.983-1.672,4-3.616,7.938-4.481,12.188-1.039,5.1-.468,10.375-.334,15.582a73.509,73.509,0,0,1-2.6,22.171c-1.079,3.756-2.523,7.427-3.115,11.29-.737,4.817-.118,9.724.343,14.575a223.865,223.865,0,0,1,.9,28.074c-.17,5.505,4.478,5.361,7.557,1.979,2.153-2.365,2.133-4.962,2.87-7.907C2341.274,1170.8,2345.925,1163.379,2345.337,1152.9Z" transform="translate(-2271.316 -1022.453)" fill="#3c8f7c"/>
      <path id="Path_2879" data-name="Path 2879" d="M2189.938,1520.7c-4.109-6.6-12.3-10.357-14.922-17.681-.669-1.864-.93-3.868-1.746-5.671-1.813-4-5.937-6.268-9.99-8.111a.857.857,0,0,0-1.211.771h0a2.925,2.925,0,0,0,1.269,2.473,16.445,16.445,0,0,1,6.552,8.937c1.252,4.292.709,9,2.265,13.188,1.306,3.518,4,6.394,5.26,9.928,1.155,3.23,1.033,6.76,1.577,10.148s2.048,6.983,5.159,8.417C2195.406,1548.283,2192.593,1524.962,2189.938,1520.7Z" transform="translate(-2144.953 -1375.322)" fill="#327f6b"/>
      <path id="Path_2880" data-name="Path 2880" d="M2415.28,1469.884c-.175,3.193.313,6.539-.936,9.481a28.752,28.752,0,0,1-3.417,5.073c-4.144,5.861-5.646,14.166-12.013,17.465a2.165,2.165,0,0,1-1.354.326,2.076,2.076,0,0,1-1.343-1.361c-1.561-3.637.19-7.734,1.228-11.554a2.836,2.836,0,0,0,.015-2.028c-.35-.676-1.149-.969-1.7-1.5-1.088-1.058-.985-2.809-.77-4.313a97.834,97.834,0,0,1,2.271-11.151,19.506,19.506,0,0,1,2.387-5.964,26.4,26.4,0,0,1,5.03-4.977,59.608,59.608,0,0,0,17.4-25.687c.736-2.143,1.392-4.406,2.912-6.085s4.23-2.542,6.081-1.24c1.317.927-4.078,9.6-4.707,10.646-1.8,2.974-1.821,5.562-2.837,8.864C2421.043,1453.971,2415.756,1461.214,2415.28,1469.884Z" transform="translate(-2323.475 -1326.688)" fill="#3c8f7c"/>
      <path id="Path_2881" data-name="Path 2881" d="M2372.617,1379.173a39.285,39.285,0,0,0,2.754-9.373c.431-3.6-.141-7.292.475-10.87.791-4.6,3.474-8.646,4.8-13.12.959-3.231,1.194-6.625,1.77-9.947,1.646-9.5,6.111-18.776,4.83-28.329-.279-2.078-1.217-4.5-3.279-4.854-1.867-.321-3.567,1.386-4.052,3.221s-.123,3.77.01,5.663a23.373,23.373,0,0,1-4.188,14.993c-2.933,4.15-7.188,7.275-9.827,11.618-3.238,5.328-3.678,11.831-5.33,17.846-3.285,11.96-11.525,22.394-13.027,34.707-.6,4.9.552,10.855,5.074,12.813C2365.707,1409.2,2369.655,1386.835,2372.617,1379.173Z" transform="translate(-2287.088 -1232.286)" fill="#327f6b"/>
      <path id="Path_2882" data-name="Path 2882" d="M2248.276,1696.059h-30.014a3.183,3.183,0,0,0-3.092,3.921l10.942,46.137a3.179,3.179,0,0,0,3.091,2.448h36.054a3.179,3.179,0,0,0,3.092-2.448l10.941-46.137a3.182,3.182,0,0,0-3.091-3.921Z" transform="translate(-2185.609 -1533.993)" fill="#f47458"/>
    </g>
    <g id="Group_57211" data-name="Group 57211" transform="translate(212.613 3419.102)">
      <rect id="Rectangle_1098" data-name="Rectangle 1098" width="145.894" height="7.535" transform="translate(17.536)" fill="#184655"/>
      <rect id="Rectangle_1099" data-name="Rectangle 1099" width="95.386" height="6.593" transform="translate(20.173 43.711)" fill="#184655"/>
      <rect id="Rectangle_1100" data-name="Rectangle 1100" width="6.154" height="102.771" transform="translate(142.959 3.768)" fill="#184655"/>
      <rect id="Rectangle_1101" data-name="Rectangle 1101" width="6.154" height="102.771" transform="translate(55.925 3.768)" fill="#184655"/>
      <path id="Path_2883" data-name="Path 2883" d="M770.335,1580.441l33.152-101.888-5.434-1.768-33.727,103.655Z" transform="translate(-671.149 -1473.902)" fill="#184655"/>
      <path id="Path_2884" data-name="Path 2884" d="M370.549,1580.493l28.355-102.11-5.506-1.529-28.78,103.64Z" transform="translate(-364.618 -1473.954)" fill="#184655"/>
    </g>
    <path id="Path_2885" data-name="Path 2885" d="M2178.179,357.454a40.732,40.732,0,1,0,40.647,40.732A40.69,40.69,0,0,0,2178.179,357.454Zm2.18,75.54A34.876,34.876,0,1,1,2212.915,396,34.83,34.83,0,0,1,2180.359,432.994Z" transform="translate(-1511.629 2803.601)" fill="#184655"/>
    <rect id="Rectangle_1102" data-name="Rectangle 1102" width="801.115" height="1.545" transform="translate(149.028 3528.182)" fill="#2b1656"/>
    <path id="Path_2886" data-name="Path 2886" d="M1646.892,671.7l10.837-.177s-.182,4.12-4.946,4.336C1646.975,676.125,1646.892,671.7,1646.892,671.7Z" transform="translate(-1135.364 2562.743)" fill="#fff"/>
  </g>
</svg>
