<svg xmlns="http://www.w3.org/2000/svg" width="1920" height="1080" viewBox="0 0 1920 1080">
  <g id="intro-background" transform="translate(-15 -24)">
    <g id="Group_57269" data-name="Group 57269" transform="translate(15 24)">
      <rect id="Rectangle_1105" data-name="Rectangle 1105" width="1920" height="1080" fill="#d1fbf9"/>
      <path id="Path_2942" data-name="Path 2942" d="M0,0H1920V1080S1281.67,567.174,737.012,955.893,0,652.477,0,652.477Z" fill="#e3fffe"/>
    </g>
    <g id="Group_57341" data-name="Group 57341" transform="translate(-132.189 -1941.288)">
      <g id="Group_57337" data-name="Group 57337" transform="translate(970.189 2288.296)">
        <ellipse id="Ellipse_694" data-name="Ellipse 694" cx="7.061" cy="7.061" rx="7.061" ry="7.061" transform="translate(0 57.091)" fill="#83d4ed"/>
        <ellipse id="Ellipse_695" data-name="Ellipse 695" cx="7.061" cy="7.061" rx="7.061" ry="7.061" transform="translate(30.012 57.091)" fill="#83d4ed"/>
        <ellipse id="Ellipse_696" data-name="Ellipse 696" cx="7.061" cy="7.061" rx="7.061" ry="7.061" transform="translate(59.692 57.091)" fill="#83d4ed"/>
        <ellipse id="Ellipse_697" data-name="Ellipse 697" cx="7.061" cy="7.061" rx="7.061" ry="7.061" transform="translate(30.012 28.546)" fill="#83d4ed"/>
        <ellipse id="Ellipse_698" data-name="Ellipse 698" cx="7.061" cy="7.061" rx="7.061" ry="7.061" transform="translate(59.692 28.546)" fill="#83d4ed"/>
        <ellipse id="Ellipse_699" data-name="Ellipse 699" cx="7.061" cy="7.061" rx="7.061" ry="7.061" transform="translate(59.692)" fill="#83d4ed"/>
        <ellipse id="Ellipse_694-2" data-name="Ellipse 694" cx="7.061" cy="7.061" rx="7.061" ry="7.061" transform="translate(59.692)" fill="#83d4ed"/>
        <ellipse id="Ellipse_695-2" data-name="Ellipse 695" cx="7.061" cy="7.061" rx="7.061" ry="7.061" transform="translate(29.681)" fill="#83d4ed"/>
        <ellipse id="Ellipse_696-2" data-name="Ellipse 696" cx="7.061" cy="7.061" rx="7.061" ry="7.061" fill="#83d4ed"/>
        <ellipse id="Ellipse_697-2" data-name="Ellipse 697" cx="7.061" cy="7.061" rx="7.061" ry="7.061" transform="translate(29.681 28.546)" fill="#83d4ed"/>
        <ellipse id="Ellipse_698-2" data-name="Ellipse 698" cx="7.061" cy="7.061" rx="7.061" ry="7.061" transform="translate(0 28.546)" fill="#83d4ed"/>
        <ellipse id="Ellipse_699-2" data-name="Ellipse 699" cx="7.061" cy="7.061" rx="7.061" ry="7.061" transform="translate(0 57.091)" fill="#83d4ed"/>
      </g>
      <g id="Group_57340" data-name="Group 57340" transform="translate(1058.171 2288.296)">
        <ellipse id="Ellipse_694-3" data-name="Ellipse 694" cx="7.061" cy="7.061" rx="7.061" ry="7.061" transform="translate(0 57.091)" fill="#83d4ed"/>
        <ellipse id="Ellipse_695-3" data-name="Ellipse 695" cx="7.061" cy="7.061" rx="7.061" ry="7.061" transform="translate(30.012 57.091)" fill="#83d4ed"/>
        <ellipse id="Ellipse_696-3" data-name="Ellipse 696" cx="7.061" cy="7.061" rx="7.061" ry="7.061" transform="translate(59.692 57.091)" fill="#83d4ed"/>
        <ellipse id="Ellipse_697-3" data-name="Ellipse 697" cx="7.061" cy="7.061" rx="7.061" ry="7.061" transform="translate(30.012 28.546)" fill="#83d4ed"/>
        <ellipse id="Ellipse_698-3" data-name="Ellipse 698" cx="7.061" cy="7.061" rx="7.061" ry="7.061" transform="translate(59.692 28.546)" fill="#83d4ed"/>
        <ellipse id="Ellipse_699-3" data-name="Ellipse 699" cx="7.061" cy="7.061" rx="7.061" ry="7.061" transform="translate(59.692)" fill="#83d4ed"/>
        <ellipse id="Ellipse_694-4" data-name="Ellipse 694" cx="7.061" cy="7.061" rx="7.061" ry="7.061" transform="translate(59.692)" fill="#83d4ed"/>
        <ellipse id="Ellipse_695-4" data-name="Ellipse 695" cx="7.061" cy="7.061" rx="7.061" ry="7.061" transform="translate(29.681)" fill="#83d4ed"/>
        <ellipse id="Ellipse_696-4" data-name="Ellipse 696" cx="7.061" cy="7.061" rx="7.061" ry="7.061" fill="#83d4ed"/>
        <ellipse id="Ellipse_697-4" data-name="Ellipse 697" cx="7.061" cy="7.061" rx="7.061" ry="7.061" transform="translate(29.681 28.546)" fill="#83d4ed"/>
        <ellipse id="Ellipse_698-4" data-name="Ellipse 698" cx="7.061" cy="7.061" rx="7.061" ry="7.061" transform="translate(0 28.546)" fill="#83d4ed"/>
        <ellipse id="Ellipse_699-4" data-name="Ellipse 699" cx="7.061" cy="7.061" rx="7.061" ry="7.061" transform="translate(0 57.091)" fill="#83d4ed"/>
      </g>
      <g id="Group_57338" data-name="Group 57338" transform="translate(970.189 2374.811)">
        <ellipse id="Ellipse_694-5" data-name="Ellipse 694" cx="7.061" cy="7.061" rx="7.061" ry="7.061" transform="translate(0 57.091)" fill="#83d4ed"/>
        <ellipse id="Ellipse_695-5" data-name="Ellipse 695" cx="7.061" cy="7.061" rx="7.061" ry="7.061" transform="translate(30.012 57.091)" fill="#83d4ed"/>
        <ellipse id="Ellipse_696-5" data-name="Ellipse 696" cx="7.061" cy="7.061" rx="7.061" ry="7.061" transform="translate(59.692 57.091)" fill="#83d4ed"/>
        <ellipse id="Ellipse_697-5" data-name="Ellipse 697" cx="7.061" cy="7.061" rx="7.061" ry="7.061" transform="translate(30.012 28.546)" fill="#83d4ed"/>
        <ellipse id="Ellipse_698-5" data-name="Ellipse 698" cx="7.061" cy="7.061" rx="7.061" ry="7.061" transform="translate(59.692 28.546)" fill="#83d4ed"/>
        <ellipse id="Ellipse_699-5" data-name="Ellipse 699" cx="7.061" cy="7.061" rx="7.061" ry="7.061" transform="translate(59.692 0)" fill="#83d4ed"/>
        <ellipse id="Ellipse_694-6" data-name="Ellipse 694" cx="7.061" cy="7.061" rx="7.061" ry="7.061" transform="translate(59.692 0)" fill="#83d4ed"/>
        <ellipse id="Ellipse_695-6" data-name="Ellipse 695" cx="7.061" cy="7.061" rx="7.061" ry="7.061" transform="translate(29.681 0)" fill="#83d4ed"/>
        <ellipse id="Ellipse_696-6" data-name="Ellipse 696" cx="7.061" cy="7.061" rx="7.061" ry="7.061" transform="translate(0 0)" fill="#83d4ed"/>
        <ellipse id="Ellipse_697-6" data-name="Ellipse 697" cx="7.061" cy="7.061" rx="7.061" ry="7.061" transform="translate(29.681 28.546)" fill="#83d4ed"/>
        <ellipse id="Ellipse_698-6" data-name="Ellipse 698" cx="7.061" cy="7.061" rx="7.061" ry="7.061" transform="translate(0 28.546)" fill="#83d4ed"/>
        <ellipse id="Ellipse_699-6" data-name="Ellipse 699" cx="7.061" cy="7.061" rx="7.061" ry="7.061" transform="translate(0 57.091)" fill="#83d4ed"/>
      </g>
      <g id="Group_57339" data-name="Group 57339" transform="translate(1058.171 2374.811)">
        <ellipse id="Ellipse_694-7" data-name="Ellipse 694" cx="7.061" cy="7.061" rx="7.061" ry="7.061" transform="translate(0 57.091)" fill="#83d4ed"/>
        <ellipse id="Ellipse_695-7" data-name="Ellipse 695" cx="7.061" cy="7.061" rx="7.061" ry="7.061" transform="translate(30.012 57.091)" fill="#83d4ed"/>
        <ellipse id="Ellipse_696-7" data-name="Ellipse 696" cx="7.061" cy="7.061" rx="7.061" ry="7.061" transform="translate(59.692 57.091)" fill="#83d4ed"/>
        <ellipse id="Ellipse_697-7" data-name="Ellipse 697" cx="7.061" cy="7.061" rx="7.061" ry="7.061" transform="translate(30.012 28.546)" fill="#83d4ed"/>
        <ellipse id="Ellipse_698-7" data-name="Ellipse 698" cx="7.061" cy="7.061" rx="7.061" ry="7.061" transform="translate(59.692 28.546)" fill="#83d4ed"/>
        <ellipse id="Ellipse_699-7" data-name="Ellipse 699" cx="7.061" cy="7.061" rx="7.061" ry="7.061" transform="translate(59.692 0)" fill="#83d4ed"/>
        <ellipse id="Ellipse_694-8" data-name="Ellipse 694" cx="7.061" cy="7.061" rx="7.061" ry="7.061" transform="translate(59.692 0)" fill="#83d4ed"/>
        <ellipse id="Ellipse_695-8" data-name="Ellipse 695" cx="7.061" cy="7.061" rx="7.061" ry="7.061" transform="translate(29.681 0)" fill="#83d4ed"/>
        <ellipse id="Ellipse_696-8" data-name="Ellipse 696" cx="7.061" cy="7.061" rx="7.061" ry="7.061" transform="translate(0 0)" fill="#83d4ed"/>
        <ellipse id="Ellipse_697-8" data-name="Ellipse 697" cx="7.061" cy="7.061" rx="7.061" ry="7.061" transform="translate(29.681 28.546)" fill="#83d4ed"/>
        <ellipse id="Ellipse_698-8" data-name="Ellipse 698" cx="7.061" cy="7.061" rx="7.061" ry="7.061" transform="translate(0 28.546)" fill="#83d4ed"/>
        <ellipse id="Ellipse_699-8" data-name="Ellipse 699" cx="7.061" cy="7.061" rx="7.061" ry="7.061" transform="translate(0 57.091)" fill="#83d4ed"/>
      </g>
    </g>
    <path id="Polygon_2" data-name="Polygon 2" d="M13.214,6.021a4,4,0,0,1,6.933,0L29.91,22.976a4,4,0,0,1-3.466,6H6.919a4,4,0,0,1-3.466-6Z" transform="translate(454.521 285.822) rotate(49)" fill="#ffac48"/>
    <g id="Ellipse_667" data-name="Ellipse 667" transform="translate(673 345)" fill="none" stroke="#42b39a" stroke-width="6">
      <circle cx="16" cy="16" r="16" stroke="none"/>
      <circle cx="16" cy="16" r="13" fill="none"/>
    </g>
    <g id="Ellipse_668" data-name="Ellipse 668" transform="translate(827 1007)" fill="none" stroke="#42b39a" stroke-width="6">
      <circle cx="18" cy="18" r="18" stroke="none"/>
      <circle cx="18" cy="18" r="15" fill="none"/>
    </g>
    <g id="Ellipse_669" data-name="Ellipse 669" transform="translate(1716 411)" fill="none" stroke="#42b39a" stroke-width="6">
      <circle cx="18" cy="18" r="18" stroke="none"/>
      <circle cx="18" cy="18" r="15" fill="none"/>
    </g>
    <g id="clouds" transform="translate(155 323.835)">
      <path id="Path_3025" data-name="Path 3025" d="M125.485,139.332a37.673,37.673,0,0,0-64.266,17.389,22.6,22.6,0,0,0-25.753,8.585,28.342,28.342,0,1,0-7.127,55.775H59.585a17.551,17.551,0,0,1,22.79-16.621c-.008-.265-.02-.531-.02-.8a23.591,23.591,0,0,1,46.6-5.22,14.152,14.152,0,0,1,16.125,5.377,17.766,17.766,0,0,1,19.679,8.045A28.02,28.02,0,0,0,135.6,166.335c.014-.424.032-.85.032-1.278a37.506,37.506,0,0,0-4.315-17.524" transform="translate(0 -47.826)" fill="#beeafc"/>
      <path id="Path_3026" data-name="Path 3026" d="M30.047,237.636q-.848-.051-1.708-.053a28.34,28.34,0,0,0,0,56.679H59.585a17.462,17.462,0,0,1,2.172-8.339A87.949,87.949,0,0,1,30.047,237.636Z" transform="translate(0 -121.007)" fill="#aee4ff"/>
      <g id="Group_57272" data-name="Group 57272" transform="translate(7.869 55.36)">
        <path id="Path_3024" data-name="Path 3024" d="M67.952,99.607H80.8a37.752,37.752,0,0,1,22.852-18.261,13.24,13.24,0,0,0-16.2-7.592c.007-.2.015-.4.015-.6a17.79,17.79,0,0,0-35.14-3.936,10.679,10.679,0,0,0-12.162,4.054,13.384,13.384,0,1,0-3.366,26.338H58.2" transform="translate(-23.426 -55.36)" fill="#9fdef7"/>
        <path id="Path_3027" data-name="Path 3027" d="M42.974,121.879A87.844,87.844,0,0,1,47.005,95.5a10.679,10.679,0,0,0-6.831,4.425,13.384,13.384,0,1,0-3.366,26.338h6.275Q42.977,124.082,42.974,121.879Z" transform="translate(-23.427 -82.014)" fill="#83d4ed"/>
      </g>
      <g id="Group_57273" data-name="Group 57273" transform="translate(59.583 131.492)">
        <path id="Path_3028" data-name="Path 3028" d="M267.323,305.166a17.764,17.764,0,0,0-4.463.567,14.152,14.152,0,0,0-16.125-5.377,23.591,23.591,0,0,0-46.6,5.22c0,.269.012.535.02.8a17.542,17.542,0,1,0-5.252,34.281h72.419a17.746,17.746,0,1,0,0-35.491Z" transform="translate(-177.364 -281.983)" fill="#e4f2f9"/>
        <path id="Path_3029" data-name="Path 3029" d="M213.609,302.369a43.718,43.718,0,0,1,3.757-17.785A23.6,23.6,0,0,0,200.134,307.3c0,.269.012.535.02.8a17.542,17.542,0,1,0-5.252,34.281h44.571A43.876,43.876,0,0,1,213.609,302.369Z" transform="translate(-177.362 -283.71)" fill="#d7edf9"/>
      </g>
    </g>
    <g id="Group_57278" data-name="Group 57278" transform="translate(1390.226 79.82)">
      <path id="Path_3028-2" data-name="Path 3028" d="M307.376,315.487a25.675,25.675,0,0,0-6.45.82,20.453,20.453,0,0,0-23.305-7.771,34.1,34.1,0,0,0-67.346,7.544c0,.388.017.773.029,1.157a25.353,25.353,0,1,0-7.59,49.544H307.377a25.647,25.647,0,1,0,0-51.294Z" transform="translate(-91.251 -116.594)" fill="#beeafc"/>
      <path id="Path_3029-2" data-name="Path 3029" d="M229.747,310.288a63.183,63.183,0,0,1,5.43-25.7,34.1,34.1,0,0,0-24.9,32.834c0,.388.017.773.029,1.156a25.353,25.353,0,1,0-7.59,49.544h64.417A63.412,63.412,0,0,1,229.747,310.288Z" transform="translate(-91.25 -117.932)" fill="#aee4ff"/>
    </g>
    <path id="Polygon_4" data-name="Polygon 4" d="M16.526,6.021a4,4,0,0,1,6.933,0L36.532,28.727a4,4,0,0,1-3.466,6H6.919a4,4,0,0,1-3.466-6Z" transform="translate(544.194 896.414) rotate(23)" fill="#ffac48"/>
    <path id="Polygon_5" data-name="Polygon 5" d="M21.222,7.526a5,5,0,0,1,8.666,0L46.795,36.89a5,5,0,0,1-4.333,7.495H8.648A5,5,0,0,1,4.315,36.89Z" transform="matrix(0.921, -0.391, 0.391, 0.921, 1619.247, 826.143)" fill="#ffac48"/>
  </g>
</svg>
