<svg xmlns="http://www.w3.org/2000/svg" width="52.857" height="50.091" viewBox="0 0 52.857 50.091">
  <g id="computer" transform="matrix(0.966, 0.259, -0.259, 0.966, 10.012, -3.261)" opacity="0.2">
    <path id="Path_2917" data-name="Path 2917" d="M43.526,34.952H2.9A2.905,2.905,0,0,1,0,32.05V6.9A2.905,2.905,0,0,1,2.9,4H7.738a.967.967,0,0,1,0,1.934H2.9a.968.968,0,0,0-.967.967V32.05a.968.968,0,0,0,.967.967H43.526a.968.968,0,0,0,.967-.967V6.9a.968.968,0,0,0-.967-.967H38.69A.967.967,0,0,1,38.69,4h4.836a2.905,2.905,0,0,1,2.9,2.9V32.05A2.905,2.905,0,0,1,43.526,34.952Z" transform="translate(0 3.732)" fill="#001a46"/>
    <path id="Path_2918" data-name="Path 2918" d="M10.967,28.672A.968.968,0,0,1,10,27.705V19.967a.967.967,0,1,1,1.934,0v7.738A.968.968,0,0,1,10.967,28.672Z" transform="translate(9.345 17.749)" fill="#001a46"/>
    <path id="Path_2919" data-name="Path 2919" d="M13.967,28.672A.968.968,0,0,1,13,27.705V19.967a.967.967,0,1,1,1.934,0v7.738A.968.968,0,0,1,13.967,28.672Z" transform="translate(12.148 17.749)" fill="#001a46"/>
    <path id="Path_2920" data-name="Path 2920" d="M12.467,19.144a.968.968,0,0,1-.967-.967V2.217a.967.967,0,0,1,1.934,0v15.96A.968.968,0,0,1,12.467,19.144Z" transform="translate(10.747 1.162)" fill="#001a46"/>
    <path id="Path_2921" data-name="Path 2921" d="M17.14,21.273a.985.985,0,0,1-.605-.211c-2.426-1.94-4.767-2.234-7.156-.892A1.923,1.923,0,0,1,6.5,18.5V3.876A2.828,2.828,0,0,1,7.719,1.51a7.775,7.775,0,0,1,9.421.176,7.767,7.767,0,0,1,9.419-.174,2.819,2.819,0,0,1,1.221,2.364V18.5a1.9,1.9,0,0,1-.946,1.654,1.926,1.926,0,0,1-1.934.014c-2.389-1.343-4.73-1.048-7.156.892a.966.966,0,0,1-.6.213ZM12.325,17.4a8.285,8.285,0,0,1,4.815,1.695,7.612,7.612,0,0,1,8.705-.613V3.876a.91.91,0,0,0-.362-.758c-2.59-1.733-5.123-1.561-7.738.532a.969.969,0,0,1-1.209,0c-2.615-2.093-5.148-2.267-7.74-.532a.908.908,0,0,0-.362.758V18.5a7.82,7.82,0,0,1,3.89-1.1Z" transform="translate(6.074 0)" fill="#001a46"/>
    <path id="Path_2922" data-name="Path 2922" d="M25.378,24.934H7.967a.967.967,0,1,1,0-1.934h17.41a.967.967,0,1,1,0,1.934Z" transform="translate(6.541 21.487)" fill="#001a46"/>
  </g>
</svg>
