<svg id="diploma" xmlns="http://www.w3.org/2000/svg" width="134.145" height="125.718" viewBox="0 0 134.145 125.718">
  <path id="Path_4123" data-name="Path 4123" d="M267.2,102.111a20.086,20.086,0,0,0,20.064-20.064V70.257a20.058,20.058,0,0,0-19.2-20.042h-.023l-.079,0h-.1c-.94-.008-8.1-.012-12.447-.014-.255,0-.506.006-.758.015a20.062,20.062,0,0,0-19.306,20.048V82.047a20.086,20.086,0,0,0,20.064,20.064ZM256.475,54.124c3.322,0,7.4,0,9.662.008l.692,5.909H255.783Zm13.363,9.847a.726.726,0,1,1,0,1.453H252.773a.726.726,0,1,1,0-1.453Zm-8.558,6.366a5.421,5.421,0,0,0-1.939,10.485v6.088l-7.982-10.888a1.242,1.242,0,0,1-.218-.986,1.327,1.327,0,0,1,.628-.882,11.64,11.64,0,0,0,4.417-4.8h10.241a11.639,11.639,0,0,0,4.417,4.8,1.326,1.326,0,0,1,.628.882,1.242,1.242,0,0,1-.218.986L263.27,86.909V80.8a5.422,5.422,0,0,0-1.99-10.466Zm1.495,5.425a1.484,1.484,0,0,1-.29.881,1.956,1.956,0,0,0-2.39.025,1.494,1.494,0,1,1,2.681-.906Zm-23.5,6.286V70.257a16.067,16.067,0,0,1,13.21-15.869l-.674,5.753a4.653,4.653,0,0,0-.208,9.058,7.681,7.681,0,0,1-1.866,1.587,5.283,5.283,0,0,0-2.453,3.476,5.193,5.193,0,0,0,.9,4.083L257.4,90.911a4.793,4.793,0,0,0,3.9,1.979h0a4.8,4.8,0,0,0,3.9-1.979l9.212-12.566a5.193,5.193,0,0,0,.9-4.083,5.284,5.284,0,0,0-2.453-3.476,7.685,7.685,0,0,1-1.865-1.587,4.653,4.653,0,0,0-.208-9.058l-.674-5.753a16.068,16.068,0,0,1,13.21,15.869V82.047A16.152,16.152,0,0,1,267.2,98.181H255.41a16.152,16.152,0,0,1-16.133-16.133Z" transform="translate(-173.684 -41.256)" fill="#959db2"/>
  <path id="Path_4124" data-name="Path 4124" d="M131.949,70.261a4.242,4.242,0,0,0-3.431-.352V24.5a8.431,8.431,0,0,0-8.421-8.421H55.148A8.432,8.432,0,0,0,46.724,24.5V38.141a1.965,1.965,0,0,0,3.93,0V24.5a4.5,4.5,0,0,1,4.493-4.491H120.1a4.5,4.5,0,0,1,4.491,4.491V72.578q-.2.215-.382.436a287.967,287.967,0,0,0-20.681,28.32,1.965,1.965,0,1,0,3.329,2.088,283.662,283.662,0,0,1,20.365-27.885c1.407-1.68,2.538-1.962,2.76-1.877.2.155.516,1.276-.235,3.335-4.415,12.093-12.713,30.961-19.956,41.738l-8.743-5.048q.91-1.863,2.066-3.951a1.965,1.965,0,1,0-3.438-1.9q-1.735,3.13-2.955,5.822c-.009.019-.018.038-.026.057a43.943,43.943,0,0,0-1.82,4.631,11.821,11.821,0,0,0-6.621,5.183,9.626,9.626,0,0,0-.7,8.126c.736,2.156.557,3.834-.531,4.987a2.9,2.9,0,0,0-.685,1.232H67.986v-4.448a3.19,3.19,0,0,0-3.187-3.187H63.124v-8.9H64.8a3.19,3.19,0,0,0,3.187-3.187v-5.192a3.19,3.19,0,0,0-3.187-3.187H60.2V91.752L72.021,85.74a3.979,3.979,0,0,0,0-7.093L50.654,67.78V46a1.965,1.965,0,0,0-3.93,0v19.78L43.034,63.9a6.7,6.7,0,0,0-6.056,0h0L7.991,78.647a3.979,3.979,0,0,0,0,7.093l.068.034A5.628,5.628,0,0,0,6.2,89.95v6.332A6.244,6.244,0,0,0,1.929,102.2v3.8a2.44,2.44,0,0,0,2.437,2.437h7.595a2.439,2.439,0,0,0,2.437-2.437v-3.8a6.244,6.244,0,0,0-4.269-5.915V89.95a1.722,1.722,0,0,1,1.722-1.719h1.04l6.92,3.52v18.02h-3.8a16.015,16.015,0,0,0,0,32.029H120.1a8.431,8.431,0,0,0,8.421-8.421V90.7c2.139-5.041,3.856-9.445,4.917-12.353,1.053-2.885,1.215-6.523-1.487-8.083ZM10.468,102.2v2.3H5.86v-2.3a2.3,2.3,0,1,1,4.608,0Zm3.369-17.9L9.752,82.224a.067.067,0,0,1,.021-.074L38.759,67.407h0a2.757,2.757,0,0,1,2.493,0L70.26,82.162a.067.067,0,0,1-.021.074l-12.9,6.559-.058.03L41.253,96.979a2.757,2.757,0,0,1-2.493,0l-17.2-8.747h4.746a1.965,1.965,0,1,0,0-3.93H13.836Zm42.433,9.449v16.02H23.741V93.75l13.237,6.732a6.7,6.7,0,0,0,6.056,0Zm7.787,44.118H16.014a12.084,12.084,0,0,1,0-24.169H64.056v3.706H34.385a1.965,1.965,0,0,0,0,3.93H59.194v8.9H16.014a4.449,4.449,0,0,1,0-8.9h10.51a1.965,1.965,0,1,0,0-3.93H16.014a8.379,8.379,0,0,0,0,16.758H64.056Zm35.376-20.576,8.044,4.644q-.6.77-1.192,1.445l-7.509-4.335c.19-.557.412-1.145.656-1.754ZM91,137.792a9.107,9.107,0,0,0,.271-7.411,5.728,5.728,0,0,1,.382-4.9,7.906,7.906,0,0,1,4.482-3.423l7.69,4.44,1.034.6a10.637,10.637,0,0,1-2.757,7.09c-2.491,2.771-6.305,4-11.1,3.6Zm33.585-4.414a4.5,4.5,0,0,1-4.491,4.491H103.976a14.55,14.55,0,0,0,4.782-11.361,43.133,43.133,0,0,0,3.157-3.945c.019-.025.037-.052.055-.078,4.339-6.067,8.807-14.669,12.617-22.911v33.8Z" transform="translate(0 -16.082)" fill="#959db2"/>
</svg>
