<svg id="live-streaming" xmlns="http://www.w3.org/2000/svg" width="144.257" height="107.744" viewBox="0 0 144.257 107.744">
  <path id="Path_4108" data-name="Path 4108" d="M140.436,178.622a4.835,4.835,0,0,0-2.423.7L114.39,192.96V179.632a4.936,4.936,0,0,0-4.931-4.931H32.149a13.289,13.289,0,0,0-23.357,8.681v17.061h-4.9a3.888,3.888,0,0,0-3.87,4.263,22.2,22.2,0,0,0,19.957,19.923v9.723H7.154a4.936,4.936,0,0,0-4.931,4.931v3.951a4.936,4.936,0,0,0,4.931,4.931H21.7a2.113,2.113,0,1,0,0-4.226H7.154a.714.714,0,0,1-.7-.7v-3.951a.714.714,0,0,1,.7-.7H37.025a.714.714,0,0,1,.7.7v3.951a.714.714,0,0,1-.7.7H31.557a2.113,2.113,0,1,0,0,4.226h5.468a4.933,4.933,0,0,0,4.915-4.616h67.52a4.936,4.936,0,0,0,4.931-4.931V225.289l23.623,13.639a4.833,4.833,0,0,0,2.422.7h0a3.624,3.624,0,0,0,2.881-1.366,4.627,4.627,0,0,0,.941-2.94v-52.4c0-2.535-1.572-4.3-3.822-4.3ZM13.018,183.383a9.071,9.071,0,0,1,18.142,0v11.912H13.018Zm0,16.139H31.16v3.035a9.071,9.071,0,1,1-18.142,0v-3.035ZM10,215.807a17.911,17.911,0,0,1-5.731-11.138h4.7a13.3,13.3,0,0,0,26.256,0h4.7A17.939,17.939,0,0,1,10,215.807Zm100.167,22.811a.714.714,0,0,1-.7.7h-67.5v-.04a4.936,4.936,0,0,0-4.931-4.931H24.2v-9.723a22.2,22.2,0,0,0,19.957-19.922,3.888,3.888,0,0,0-3.87-4.263h-4.9V183.383a13.238,13.238,0,0,0-.77-4.455h74.843a.714.714,0,0,1,.7.7Zm29.868-3.4-10.019-5.785v-8.935a2.113,2.113,0,0,0-4.226,0v6.495l-11.4-6.58V197.84l11.4-6.579v19.373a2.113,2.113,0,0,0,4.226,0V188.82l10.019-5.785Z" transform="translate(-0.001 -140.419)" fill="#959db2"/>
  <path id="Path_4109" data-name="Path 4109" d="M220.2,258.054l-25.8-14.742a4.274,4.274,0,0,0-2.128-.6,3.563,3.563,0,0,0-3.48,3.859V276a3.563,3.563,0,0,0,3.48,3.859,4.273,4.273,0,0,0,2.128-.6l25.8-14.741a3.556,3.556,0,0,0,0-6.465Zm-27.185,17.128V247.39l24.323,13.9Z" transform="translate(-135.6 -192.581)" fill="#959db2"/>
  <path id="Path_4110" data-name="Path 4110" d="M68.884,204.112H63.558a2.113,2.113,0,1,0,0,4.226h5.326a2.113,2.113,0,0,0,0-4.226Z" transform="translate(-44.133 -164.859)" fill="#959db2"/>
  <path id="Path_4111" data-name="Path 4111" d="M68.884,231.835H63.558a2.113,2.113,0,1,0,0,4.226h5.326a2.113,2.113,0,0,0,0-4.226Z" transform="translate(-44.133 -184.771)" fill="#959db2"/>
  <path id="Path_4112" data-name="Path 4112" d="M238.693,153.894a8.493,8.493,0,0,0-6.231,2.742,2.113,2.113,0,1,0,3.11,2.861,4.224,4.224,0,0,1,6.242,0,2.113,2.113,0,0,0,3.11-2.862A8.492,8.492,0,0,0,238.693,153.894Z" transform="translate(-166.565 -128.79)" fill="#959db2"/>
  <path id="Path_4113" data-name="Path 4113" d="M232.274,132.5a2.113,2.113,0,1,0,3.11-2.862,16.814,16.814,0,0,0-24.778,0,2.113,2.113,0,1,0,3.11,2.862,12.588,12.588,0,0,1,18.558,0Z" transform="translate(-150.866 -107.459)" fill="#959db2"/>
  <path id="Path_4114" data-name="Path 4114" d="M209.864,98.877a2.113,2.113,0,1,0,.513-4.195,25.193,25.193,0,0,0-21.619,7.966,2.113,2.113,0,1,0,3.109,2.862,20.973,20.973,0,0,1,18-6.634Z" transform="translate(-135.175 -86.127)" fill="#959db2"/>
  <path id="Path_4115" data-name="Path 4115" d="M296.931,114.284a2.113,2.113,0,0,0,3.11-2.862,25.39,25.39,0,0,0-5.317-4.395,2.113,2.113,0,1,0-2.224,3.594A21.141,21.141,0,0,1,296.931,114.284Z" transform="translate(-209.368 -94.901)" fill="#959db2"/>
  <path id="Path_4116" data-name="Path 4116" d="M168.458,79.2a2.108,2.108,0,0,0,1.555-.682,29.3,29.3,0,0,1,43.185,0,2.113,2.113,0,1,0,3.109-2.862,33.526,33.526,0,0,0-49.4,0,2.113,2.113,0,0,0,1.554,3.544Z" transform="translate(-119.478 -64.795)" fill="#959db2"/>
</svg>
