<svg xmlns="http://www.w3.org/2000/svg" width="50.454" height="48.485" viewBox="0 0 50.454 48.485">
  <g id="program" transform="translate(0 10.829) rotate(-17)" opacity="0.2">
    <path id="Path_2935" data-name="Path 2935" d="M15.418,21.1a13.978,13.978,0,0,1-7.209-2.14A2.518,2.518,0,0,1,7,16.8V11.842a.842.842,0,0,1,1.684,0V16.8a.844.844,0,0,0,.386.719,11.5,11.5,0,0,0,12.7,0,.841.841,0,0,0,.387-.719V11.842a.842.842,0,1,1,1.684,0V16.8a2.518,2.518,0,0,1-1.209,2.165A13.978,13.978,0,0,1,15.418,21.1Z" transform="translate(4.785 7.519)" fill="#263069"/>
    <path id="Path_2936" data-name="Path 2936" d="M16.785,18.785a.843.843,0,0,1-.354-.077L5.488,13.657a.842.842,0,0,1,0-1.529L16.431,7.078a.837.837,0,0,1,.707,0l10.943,5.051a.842.842,0,0,1,0,1.529L17.139,18.708a.843.843,0,0,1-.354.077ZM7.85,12.893l8.935,4.123,8.935-4.123L16.785,8.77Z" transform="translate(3.418 4.785)" fill="#263069"/>
    <path id="Path_2937" data-name="Path 2937" d="M1.3,25.254A.842.842,0,0,1,.475,24.6,20.191,20.191,0,0,1,36.454,8.241a.841.841,0,1,1-1.357.995A18.519,18.519,0,0,0,2.118,24.228a.84.84,0,0,1-.638,1.005A.863.863,0,0,1,1.3,25.254Z" transform="translate(0)" fill="#263069"/>
    <path id="Path_2938" data-name="Path 2938" d="M18.665,34.253A20.212,20.212,0,0,1,2.413,26.012a.841.841,0,1,1,1.357-.995A18.5,18.5,0,0,0,37.184,14.051a17.358,17.358,0,0,0-.45-4.014.842.842,0,1,1,1.638-.389,19.027,19.027,0,0,1,.495,4.4,20.225,20.225,0,0,1-20.2,20.2Z" transform="translate(1.538 6.152)" fill="#263069"/>
    <path id="Path_2939" data-name="Path 2939" d="M2.926,28.1a.843.843,0,0,1-.842-.833L2,18.85a.84.84,0,0,1,.244-.6.83.83,0,0,1,.6-.251H11.26a.842.842,0,1,1,0,1.684H3.692l.076,7.568a.842.842,0,0,1-.833.85H2.926Z" transform="translate(1.367 12.304)" fill="#263069"/>
    <path id="Path_2940" data-name="Path 2940" d="M25.26,10.1H16.842a.842.842,0,0,1,0-1.684h7.576V.842a.842.842,0,1,1,1.684,0V9.26A.842.842,0,0,1,25.26,10.1Z" transform="translate(10.937)" fill="#263069"/>
  </g>
</svg>
