<svg id="video-files" xmlns="http://www.w3.org/2000/svg" width="125.718" height="125.718" viewBox="0 0 125.718 125.718">
  <g id="Group_58025" data-name="Group 58025">
    <g id="Group_58024" data-name="Group 58024">
      <path id="Path_4117" data-name="Path 4117" d="M113.441,22.59H103.128V12.277A12.291,12.291,0,0,0,90.851,0H12.278A12.291,12.291,0,0,0,0,12.277V90.85a12.291,12.291,0,0,0,12.277,12.277H22.591v10.313a12.291,12.291,0,0,0,12.277,12.277h78.573a12.291,12.291,0,0,0,12.277-12.277V34.867A12.291,12.291,0,0,0,113.441,22.59ZM12.278,98.217A7.374,7.374,0,0,1,4.912,90.85V12.277a7.375,7.375,0,0,1,7.366-7.366H90.851a7.375,7.375,0,0,1,7.366,7.366V90.85a7.375,7.375,0,0,1-7.366,7.366Zm108.53,15.224a7.375,7.375,0,0,1-7.366,7.366H34.868a7.375,7.375,0,0,1-7.366-7.366V103.127H90.851A12.291,12.291,0,0,0,103.128,90.85V27.5h10.313a7.375,7.375,0,0,1,7.366,7.366Z" transform="translate(-0.001)" fill="#959db2"/>
    </g>
  </g>
  <g id="Group_58027" data-name="Group 58027" transform="translate(32.406 112.213)">
    <g id="Group_58026" data-name="Group 58026">
      <path id="Path_4118" data-name="Path 4118" d="M134.5,457h-.066a2.455,2.455,0,1,0,0,4.911h.066a2.455,2.455,0,1,0,0-4.911Z" transform="translate(-131.98 -457.002)" fill="#959db2"/>
    </g>
  </g>
  <g id="Group_58029" data-name="Group 58029" transform="translate(39.527 112.213)">
    <g id="Group_58028" data-name="Group 58028">
      <path id="Path_4119" data-name="Path 4119" d="M234.9,457H163.435a2.455,2.455,0,1,0,0,4.911H234.9a2.455,2.455,0,0,0,0-4.911Z" transform="translate(-160.98 -457.002)" fill="#959db2"/>
    </g>
  </g>
  <g id="Group_58031" data-name="Group 58031" transform="translate(24.496 8.594)">
    <g id="Group_58030" data-name="Group 58030">
      <path id="Path_4120" data-name="Path 4120" d="M102.287,35h-.066a2.455,2.455,0,0,0,0,4.911h.066a2.455,2.455,0,0,0,0-4.911Z" transform="translate(-99.765 -35)" fill="#959db2"/>
    </g>
  </g>
  <g id="Group_58033" data-name="Group 58033" transform="translate(9.822 8.594)">
    <g id="Group_58032" data-name="Group 58032">
      <path id="Path_4121" data-name="Path 4121" d="M50.077,35h-7.62a2.455,2.455,0,0,0,0,4.911h7.62a2.455,2.455,0,0,0,0-4.911Z" transform="translate(-40.001 -35)" fill="#959db2"/>
    </g>
  </g>
  <g id="Group_58035" data-name="Group 58035" transform="translate(30.774 28.85)">
    <g id="Group_58034" data-name="Group 58034">
      <path id="Path_4122" data-name="Path 4122" d="M166.621,138.032a8.319,8.319,0,0,0-3.91-5.077L150.7,126.021c-.121-.078-.242-.153-.364-.224l-11.98-6.917a8.4,8.4,0,0,0-13.023,7.021v28.633a2.493,2.493,0,0,0,.018.3,8.389,8.389,0,0,0,12.588,6.966l12.4-7.158q.105-.061.2-.131l12.085-6.977a8.38,8.38,0,0,0,4-9.5Zm-5.081,3.912a3.461,3.461,0,0,1-1.318,1.3l-.036.02-12.31,7.106q-.106.061-.2.131l-12.193,7.04a3.48,3.48,0,0,1-5.223-3.008,2.4,2.4,0,0,0-.013-.249V125.9h0a3.493,3.493,0,0,1,5.441-2.9q.072.048.147.092l12.054,6.96c.06.035.118.072.176.11q.061.04.124.077l12.075,6.971a3.467,3.467,0,0,1,1.279,4.733Z" transform="translate(-125.332 -117.497)" fill="#959db2"/>
    </g>
  </g>
</svg>
